<svg width="10" height="10" viewBox="0 0 10 10" fill="none" xmlns="http://www.w3.org/2000/svg">
<path d="M7.90266 0.362621C6.93558 1.33027 5.96681 2.2981 5.00074 3.26592C4.03299 2.29861 3.06523 1.33078 2.09714 0.362621C0.977344 -0.756546 -0.75771 0.97917 0.361576 2.09834C1.32899 3.06514 2.29726 4.03348 3.26349 4.99994C2.29658 5.96726 1.32849 6.93542 0.361576 7.90324C-0.75771 9.02207 0.97819 10.7573 2.09714 9.63879C3.06456 8.67097 4.03231 7.70331 5.00074 6.73549C5.9685 7.70331 6.93558 8.67063 7.90266 9.63879C9.02211 10.7575 10.7573 9.02207 9.6389 7.90341C8.67097 6.93559 7.70322 5.96828 6.73529 5.00011C7.70339 4.03246 8.67114 3.06464 9.6389 2.09681C10.7573 0.977985 9.02211 -0.757731 7.90266 0.361436" fill="white"/>
</svg>
