<svg width="12" height="14" viewBox="0 0 12 14" fill="none" xmlns="http://www.w3.org/2000/svg">
<path d="M10.9629 4.47097H11.3414C11.5002 4.47507 11.6549 4.41868 11.7759 4.31261C11.8969 4.20654 11.9756 4.05824 11.9969 3.89613C12.0056 3.80704 11.996 3.71707 11.9687 3.63205C11.9415 3.54703 11.8972 3.46886 11.8387 3.40261C11.7802 3.33636 11.7088 3.28351 11.6292 3.24749C11.5496 3.21148 11.4635 3.1931 11.3765 3.19355H8.68826V1.91613C8.68826 1.40794 8.49218 0.920565 8.14316 0.561221C7.79413 0.201877 7.32075 0 6.82716 0H5.17284C4.67925 0 4.20587 0.201877 3.85684 0.561221C3.50782 0.920565 3.31174 1.40794 3.31174 1.91613V3.19355H0.658633C0.499791 3.18944 0.345064 3.24583 0.224102 3.35191C0.10314 3.45798 0.0244497 3.60628 0.00311046 3.76839C-0.00558688 3.85747 0.00400467 3.94744 0.0312625 4.03247C0.0585204 4.11749 0.102836 4.19566 0.161333 4.26191C0.21983 4.32816 0.291202 4.38101 0.370819 4.41702C0.450435 4.45304 0.536517 4.47142 0.623478 4.47097H1.03706V11.2839C1.03706 11.7921 1.23314 12.2794 1.58216 12.6388C1.93119 12.9981 2.40457 13.2 2.89816 13.2H9.10184C9.59544 13.2 10.0688 12.9981 10.4178 12.6388C10.7669 12.2794 10.9629 11.7921 10.9629 11.2839V4.47097ZM4.55247 1.91613C4.55247 1.74673 4.61784 1.58427 4.73418 1.46449C4.85052 1.34471 5.00831 1.27742 5.17284 1.27742H6.82716C6.99169 1.27742 7.14948 1.34471 7.26582 1.46449C7.38216 1.58427 7.44753 1.74673 7.44753 1.91613V3.19355H4.55247V1.91613ZM9.72221 11.2839C9.72221 11.4533 9.65685 11.6157 9.54051 11.7355C9.42416 11.8553 9.26637 11.9226 9.10184 11.9226H2.89816C2.73363 11.9226 2.57584 11.8553 2.45949 11.7355C2.34315 11.6157 2.27779 11.4533 2.27779 11.2839V4.47097H9.72221V11.2839Z" fill="white"/>
</svg>
