<svg width="13" height="13" viewBox="0 0 13 13" fill="none" xmlns="http://www.w3.org/2000/svg">
<path d="M8.66653 8.16291V11.9165H1.0834V4.3334H4.87505L5.91977 3.25H1.0834C0.48718 3.25 0 3.73767 0 4.3334V11.9165C0 12.5121 0.48718 12.9999 1.0834 12.9999H8.66653C9.26226 12.9999 9.74993 12.5121 9.74993 11.9165V7.07967L8.66653 8.16291Z" fill="white"/>
<path d="M12.8423 1.69022L11.3104 0.15783C11.1 -0.0526099 10.755 -0.0526099 10.5445 0.15783L4.90412 5.79809L4.33325 8.66673L7.20189 8.09635L12.8422 2.45609C13.0529 2.24565 13.0529 1.90066 12.8423 1.69022ZM6.66824 7.09778L5.7124 7.28823L5.90237 6.33191L10.9276 1.3072L11.6934 2.07307L6.66824 7.09778Z" fill="white"/>
</svg>
