<svg width="21" height="21" viewBox="0 0 21 21" fill="none" xmlns="http://www.w3.org/2000/svg">
<path d="M11.6667 0H9.33333V11.6667H11.6667V0ZM17.3017 2.53167L15.645 4.18833C17.4883 5.67 18.6667 7.945 18.6667 10.5C18.6667 15.015 15.015 18.6667 10.5 18.6667C5.985 18.6667 2.33333 15.015 2.33333 10.5C2.33333 7.945 3.51167 5.67 5.34333 4.17667L3.69833 2.53167C1.435 4.45667 0 7.30333 0 10.5C0 16.2983 4.70167 21 10.5 21C16.2983 21 21 16.2983 21 10.5C21 7.30333 19.565 4.45667 17.3017 2.53167Z" fill="#E74F3D"/>
</svg>
