<svg width="10" height="7" viewBox="0 0 10 7" fill="none" xmlns="http://www.w3.org/2000/svg">
<path d="M9.84671 1.60527L4.36333 6.85239C4.2612 6.94705 4.12445 7 3.98211 7C3.83976 7 3.70302 6.94705 3.60088 6.85239L0.15628 3.56372C0.0561371 3.4667 0 3.33596 0 3.19975C0 3.06354 0.0561371 2.9328 0.15628 2.83578L0.929174 2.09189C1.03183 1.99976 1.16742 1.94847 1.30831 1.94847C1.4492 1.94847 1.58479 1.99976 1.68745 2.09189L3.97271 4.28567L8.30927 0.143418C8.41193 0.0512896 8.54752 0 8.68841 0C8.8293 0 8.96489 0.0512896 9.06754 0.143418L9.84671 0.891296C9.94493 0.986449 10 1.11468 10 1.24828C10 1.38188 9.94493 1.51012 9.84671 1.60527Z" fill="white"/>
</svg>
